<?xml version="1.0" encoding="UTF-8"?>
<svg xmlns="http://www.w3.org/2000/svg" width="67" height="16" viewBox="0 0 67 16" fill="none">
  <path d="M38.8741 14.1909C38.8741 14.3201 38.9088 14.3906 38.9898 14.3906C39.0477 14.3906 39.0939 14.3671 39.1518 14.3319L60.0235 0.552129C60.3937 0.305433 60.7292 0.176211 61.2267 0.176211H65.8199C66.5256 0.176211 67 0.657856 67 1.37445V10.2673C67 11.3363 66.7686 11.9589 65.8199 12.5345L60.2549 15.9295C60.1855 15.9765 60.116 16 60.0698 16C60.0003 16 59.9425 15.953 59.9425 15.7533V5.36858C59.9425 5.2511 59.9078 5.16887 59.8268 5.16887C59.769 5.16887 59.7227 5.19236 59.6648 5.22761L44.4044 15.2952C43.9763 15.5771 43.6292 15.6593 43.2359 15.6593H33.1124C32.4067 15.6593 31.9323 15.1777 31.9323 14.4611V1.65639C31.9323 1.56241 31.886 1.48018 31.8166 1.48018C31.7588 1.48018 31.7125 1.50367 31.6546 1.53891L21.589 7.68282C21.4849 7.74156 21.4618 7.80029 21.4618 7.84728C21.4618 7.89427 21.4733 7.92952 21.5543 8L28.7391 15.2952C28.8316 15.3891 28.9011 15.4714 28.9011 15.5419C28.9011 15.6241 28.7969 15.6711 28.6697 15.6711H22.1675C21.6584 15.6711 21.2651 15.5888 20.9874 15.3069L16.6256 10.8781C16.5793 10.8311 16.5446 10.8076 16.4984 10.8076C16.4636 10.8076 16.4058 10.8311 16.3595 10.8546L9.07063 15.3069C8.63098 15.5771 8.33017 15.6593 7.89052 15.6593H1.18011C0.474357 15.6593 0 15.1777 0 14.4611V5.73275C0 4.65198 0.231394 4.04112 1.18011 3.46549L6.77983 0.0469899C6.83768 0.0117476 6.88396 0 6.93024 0C7.01122 0 7.0575 0.0939796 7.0575 0.281938V11.9589C7.0575 12.0764 7.09221 12.1351 7.1732 12.1351C7.21948 12.1351 7.27733 12.0999 7.33518 12.0646L26.2516 0.516887C26.7028 0.246696 26.9805 0.164464 27.5011 0.164464H37.6824C38.3882 0.164464 38.8625 0.646109 38.8625 1.3627L38.8741 14.1909Z" fill="white"></path>
</svg>
