<?xml version="1.0" encoding="UTF-8"?>
<svg xmlns="http://www.w3.org/2000/svg" width="67" height="40" viewBox="0 0 67 40" fill="none">
  <path d="M0 30.4332H2.10561V34.2025H6.81685V30.4332H8.92247V39.9982H6.81685V36.0935H2.10561V39.9982H0V30.4332ZM12.5318 30.4332L15.1708 34.3415L17.7783 30.4332H20.3357L16.2227 36.5471V39.9982H14.1171V36.5471L9.97435 30.4332H12.5318ZM32.1546 30.4332H38.94C39.9067 30.4332 40.8437 30.5667 40.8159 32.4998V40H38.7103V33.1875C38.7103 32.3626 38.6103 32.1889 37.9566 32.1889H34.2602V40H32.1546V30.4332ZM64.8944 30.435H67V40H64.8944V30.435ZM21.3876 39.9982H28.173C29.523 39.9982 30.0768 39.6123 30.049 37.6901V30.4332H27.9434V37.2603C27.9434 38.0797 27.8434 38.1784 27.1878 38.1784H23.4914V30.4332H21.3858L21.3876 39.9982Z" fill="white"></path>
  <path fill-rule="evenodd" clip-rule="evenodd" d="M58.522 13.2399C58.9201 8.96586 55.1015 5.75985 51.7274 3.93646C50.4699 3.27807 49.1514 2.74404 47.8143 2.25573C41.8308 0.22934 34.7973 -0.478434 28.1137 0.322612C21.9562 1.15658 15.9727 2.60139 11.2781 6.81328C9.03358 8.87259 7.69836 11.967 8.79469 14.9371C10.2262 18.551 14.0467 20.9559 17.4505 22.355C27.523 26.3786 41.2234 26.2377 50.9792 21.6326C54.32 19.9665 58.059 17.2013 58.522 13.2399ZM60.6832 40H62.7888V30.4332H55.8793C54.3163 30.4332 53.7737 31.1739 53.7737 32.4998V40H55.8793V37.2494H60.6832V40ZM25.3914 3.2927L25.4563 3.05678C25.3587 2.87853 25.1255 2.88076 24.9209 2.88272C24.8925 2.88299 24.8646 2.88326 24.8377 2.88303C22.7546 3.21942 20.7122 3.76732 18.7431 4.51804C15.4634 5.88421 11.5337 7.8978 10.5633 11.6689C9.95768 14.5604 12.0577 16.9964 14.38 18.5053C14.5029 18.5594 14.6282 18.6437 14.7555 18.7295C15.1058 18.9654 15.4713 19.2116 15.8449 18.8655C18.4542 13.4448 21.2061 7.99107 25.3914 3.2927ZM46.2216 3.8121C46.2887 3.847 46.3595 3.87585 46.4299 3.90451C46.6103 3.97798 46.7876 4.05021 46.8902 4.21994C46.9936 4.43605 46.8459 4.59106 46.7102 4.73346C46.6783 4.767 46.647 4.79984 46.6198 4.83261C43.3253 7.3784 39.5548 8.79212 35.7028 10.0339C35.284 10.1345 34.8643 10.2525 34.4421 10.3712C32.8911 10.8074 31.3048 11.2534 29.5916 10.8825C29.3287 10.8162 29.0821 10.6985 28.8661 10.5364C28.6501 10.3743 28.4692 10.1711 28.3341 9.93882C27.7934 8.46109 28.5249 6.92118 29.1619 5.63366C30.0064 4.0151 31.5009 2.11308 33.5694 2.08199C38.027 2.05272 42.2289 2.71112 46.2216 3.8121ZM37.4403 20.2675C38.2426 18.8208 39.0774 17.3155 38.727 15.5352C38.4733 14.8749 37.7566 14.3885 37.0418 14.2952C35.3157 14.0748 33.6814 14.5418 32.1445 14.9809L32.125 14.9865C31.9423 15.0469 31.7595 15.1072 31.5767 15.1675C27.6195 16.4726 23.6472 17.7827 20.2857 20.4713C20.1265 20.6121 20.0135 20.817 20.0931 21.0364C20.1974 21.1921 20.3564 21.3042 20.5395 21.351C24.5173 22.5247 28.6405 23.1487 32.7916 23.2055C34.6861 23.392 36.2603 22.1356 37.2158 20.6743C37.2892 20.5401 37.3638 20.4056 37.4386 20.2705L37.4399 20.2683L37.44 20.268L37.4402 20.2678L37.4403 20.2675ZM53.2237 7.20649C55.196 8.80858 56.9793 10.9941 56.3738 13.6331C55.3867 17.5305 51.0903 19.6062 47.6698 20.9249L47.5483 20.9649C45.7269 21.5647 43.8865 22.1708 41.8937 22.355C41.871 22.3524 41.8457 22.3513 41.8193 22.3501C41.6976 22.3445 41.5529 22.3379 41.5271 22.1831L41.5752 21.9637C44.4697 18.7412 46.6661 15.1273 48.5921 11.4659C49.4828 9.81629 50.3106 8.11909 51.0736 6.45299C51.1682 6.34631 51.2886 6.26512 51.4236 6.21707C51.9608 6.26355 52.381 6.58192 52.798 6.89785C52.9388 7.00453 53.0792 7.11093 53.2237 7.20649ZM56.7293 32.1907H60.6832L60.685 35.3821H55.8812V33.1893C55.8812 32.3919 56.0645 32.2291 56.7293 32.1907Z" fill="white"></path>
  <path fill-rule="evenodd" clip-rule="evenodd" d="M51.6681 37.6755V32.4998C51.6681 31.5579 51.357 30.4332 49.5625 30.435H42.9216V40H49.5625C50.731 40 51.6681 39.3233 51.6681 37.6755ZM48.6495 32.1889C49.2162 32.1889 49.5384 32.551 49.5384 33.0741V37.2494C49.5384 37.6371 49.4754 38.1254 48.6495 38.1675H45.029V32.1889H48.6495Z" fill="white"></path>
</svg>
