<?xml version="1.0" encoding="UTF-8"?>
<svg xmlns="http://www.w3.org/2000/svg" width="35" height="47" viewBox="0 0 35 47" fill="none">
  <path fill-rule="evenodd" clip-rule="evenodd" d="M0.884399 0.0879729C0.740374 0.131257 0.54028 0.24134 0.439775 0.332597C-0.0255558 0.755058 0.000921866 -0.644656 0.000921866 23.5197C0.000921866 48.3465 -0.0482772 46.3421 0.572163 46.786L0.871297 47H17.5001H34.1288L34.4279 46.786C35.0461 46.3437 34.9992 47.8951 34.9992 27.9033V9.7624L34.7336 9.40398C34.5875 9.20685 32.4952 7.07231 30.0839 4.66059C27.0734 1.64942 25.5932 0.231413 25.3593 0.134551C25.0587 0.0100272 23.6167 -0.00559337 13.0824 0.00139098C6.51747 0.00571025 1.02833 0.0446883 0.884399 0.0879729ZM23.567 6.78668L23.5927 10.823L23.8217 11.0687C24.2982 11.5802 24.231 11.5728 28.4439 11.5728H32.3422V27.9309V44.289H17.5001H2.65786V23.5197V2.75047H13.0996H23.5414L23.567 6.78668ZM30.3266 8.83806C30.3266 8.87639 29.399 8.90773 28.2652 8.90773H26.2038V6.77181V4.63598L28.2652 6.70214C29.399 7.83857 30.3266 8.79974 30.3266 8.83806ZM10.3538 6.03184C10.1402 6.11023 9.79989 6.44694 9.65797 6.72052C9.58623 6.85883 9.52924 7.23148 9.52924 7.56204V8.15526L9.06446 8.2194C8.38695 8.31287 7.43072 8.82704 6.92416 9.37025C5.23225 11.1845 5.67971 14.3184 7.79546 15.4735C8.56001 15.8909 9.06978 15.9817 10.6545 15.9829C12.2163 15.9841 12.5189 16.0498 12.9069 16.4719C13.1989 16.7898 13.258 17.3951 13.0387 17.822C12.739 18.4049 12.4842 18.4649 10.308 18.4653C8.65749 18.4655 8.3394 18.4884 8.06985 18.6263C7.39398 18.9719 7.14909 19.7702 7.50448 20.4689C7.74901 20.9498 8.08974 21.1279 8.89479 21.1956L9.52924 21.2489V21.7974C9.52924 22.9926 10.4211 23.6911 11.3951 23.2589C11.9605 23.008 12.1308 22.7096 12.1862 21.872L12.232 21.1798L12.6707 21.1064C13.6676 20.9396 14.6756 20.3019 15.2018 19.5051C16.0045 18.2895 16.0599 16.3636 15.3267 15.1701C15.0286 14.6851 14.3279 14.033 13.8353 13.7823C13.1067 13.4113 12.5349 13.3189 10.9677 13.3187C9.82288 13.3186 9.51917 13.29 9.26089 13.1579C8.323 12.6783 8.323 11.4782 9.26089 10.9986C9.53025 10.8609 9.84771 10.8379 11.4852 10.8378C13.6204 10.8376 13.867 10.7836 14.2003 10.2426C14.5677 9.6464 14.3677 8.65289 13.8174 8.33998C13.7013 8.27399 13.2971 8.19901 12.9191 8.17327L12.232 8.12658L12.1854 7.43734C12.1321 6.64967 12.0196 6.39805 11.6077 6.14615C11.3266 5.97421 10.6734 5.91466 10.3538 6.03184ZM6.91619 26.6378C6.21256 26.807 5.80953 27.3781 5.88979 28.0923C5.94522 28.5853 6.17903 28.931 6.60396 29.1484C6.89393 29.2967 7.39114 29.3089 13.0566 29.3072C18.8888 29.3054 19.2141 29.2966 19.5783 29.1308C20.3769 28.7671 20.5542 27.611 19.9065 26.9898C19.7672 26.8562 19.4676 26.7041 19.2408 26.6519C18.7687 26.5431 7.36403 26.5301 6.91619 26.6378ZM24.6005 26.6335C23.8996 26.814 23.5478 27.2505 23.5472 27.9403C23.5468 28.458 23.8272 28.9195 24.2817 29.1484C24.5517 29.2846 24.8666 29.3091 26.3412 29.3091C27.8177 29.3091 28.1297 29.2847 28.3961 29.1484C29.3251 28.6733 29.3756 27.3104 28.4839 26.7821C28.2082 26.6188 27.9897 26.5963 26.5245 26.5805C25.6175 26.5707 24.7517 26.5945 24.6005 26.6335ZM6.52791 32.7092C5.65406 33.2436 5.65406 34.4732 6.52791 35.0076C6.81816 35.1851 7.0014 35.1903 13.0566 35.1905C20.1681 35.1907 19.7465 35.2364 20.1498 34.4204C20.3535 34.008 20.3624 33.9369 20.2589 33.5485C20.1968 33.3159 20.0765 33.0484 19.9914 32.9542C19.5977 32.5178 19.7279 32.5258 13.084 32.5262C7.00158 32.5265 6.81816 32.5317 6.52791 32.7092ZM24.1953 32.6907C23.3945 33.1274 23.3276 34.408 24.0767 34.9612C24.304 35.129 24.4927 35.1472 26.2496 35.1705C28.0443 35.1942 28.1937 35.1834 28.4722 35.0104C29.2837 34.5065 29.3584 33.4818 28.6333 32.8016C28.39 32.5734 28.3749 32.5716 26.4486 32.5457C24.7007 32.5223 24.4779 32.5366 24.1953 32.6907ZM6.59929 38.5684C5.90922 38.9162 5.67156 39.7381 6.06029 40.432C6.44472 41.1181 6.0679 41.0854 13.2239 41.0543L19.6214 41.0265L19.9248 40.6944C20.3536 40.2251 20.4242 39.7305 20.1426 39.1693C19.738 38.3631 20.1469 38.4074 13.1038 38.4076C7.39756 38.4077 6.89338 38.4202 6.59929 38.5684ZM24.3256 38.5372C23.8461 38.7509 23.6122 39.0887 23.5673 39.6323C23.5182 40.2258 23.6974 40.6316 24.124 40.8924C24.39 41.0552 24.5945 41.0719 26.3304 41.0721C28.089 41.0725 28.2677 41.0575 28.5425 40.8872C29.137 40.5187 29.3111 39.5516 28.8872 38.9713C28.5193 38.4675 28.246 38.4074 26.3412 38.4112C25.0956 38.4137 24.5223 38.4495 24.3256 38.5372Z" fill="black"></path>
</svg>
