<?xml version="1.0" encoding="UTF-8"?>
<svg xmlns="http://www.w3.org/2000/svg" width="67" height="23" viewBox="0 0 67 23" fill="none">
  <path d="M55.4085 1.24984e-05C52.6392 1.24984e-05 50.0989 0.963885 48.1057 2.57034C46.0427 0.904101 43.4629 -0.00388549 40.8028 1.24984e-05C38.0336 1.24984e-05 35.4932 0.963885 33.5 2.57034C31.437 0.904101 28.8573 -0.00388549 26.1972 1.24984e-05C23.4279 1.24984e-05 20.8875 0.963885 18.8943 2.57034C17.1937 1.20106 15.1368 0.337869 12.962 0.0807797C10.7872 -0.17631 8.58352 0.18322 6.60621 1.11772C4.6289 2.05221 2.95892 3.52343 1.78973 5.36092C0.62054 7.19841 0 9.32697 0 11.5C0 13.673 0.62054 15.8016 1.78973 17.6391C2.95892 19.4766 4.6289 20.9478 6.60621 21.8823C8.58352 22.8168 10.7872 23.1763 12.962 22.9192C15.1368 22.6621 17.1937 21.799 18.8943 20.4297C20.8875 22.0361 23.4279 23 26.1972 23C28.9664 23 31.5068 22.0361 33.5 20.4297C35.4932 22.0361 38.0336 23 40.8028 23C43.5721 23 46.1125 22.0361 48.1057 20.4297C49.5463 21.5896 51.2465 22.3895 53.0635 22.762C54.8804 23.1346 56.7609 23.0689 58.547 22.5706C60.333 22.0723 61.9724 21.1558 63.3273 19.8983C64.6823 18.6408 65.7131 17.0789 66.3333 15.344C66.9535 13.6091 67.1448 11.7518 66.8912 9.92831C66.6377 8.10478 65.9466 6.36829 64.8761 4.8648C63.8057 3.3613 62.387 2.13474 60.7395 1.2882C59.092 0.44166 57.2638 -0.000112225 55.4085 1.24984e-05ZM48.1057 16.6684C47.0178 15.1613 46.434 13.3537 46.4363 11.5C46.4363 9.57226 47.056 7.78854 48.1057 6.33166C49.1553 7.78854 49.775 9.57226 49.775 11.5C49.775 13.4277 49.1553 15.2115 48.1057 16.6684ZM33.5 16.6684C32.4122 15.1613 31.8283 13.3537 31.8306 11.5C31.8306 9.57226 32.4504 7.78854 33.5 6.33166C34.5496 7.78854 35.1694 9.57226 35.1694 11.5C35.1694 13.4277 34.5496 15.2115 33.5 16.6684ZM18.8943 16.6684C17.8065 15.1613 17.2227 13.3537 17.225 11.5C17.225 9.57226 17.8447 7.78854 18.8943 6.33166C19.944 7.78854 20.5637 9.57226 20.5637 11.5C20.5637 13.4277 19.944 15.2115 18.8943 16.6684ZM2.61931 11.5C2.61997 9.83895 3.08902 8.21121 3.97344 6.80085C4.85785 5.39049 6.12234 4.25377 7.62391 3.51923C9.12548 2.7847 10.8042 2.48165 12.4704 2.64435C14.1365 2.80705 15.7235 3.42902 17.0519 4.43992C15.4647 6.45614 14.6037 8.94167 14.6064 11.5C14.6064 14.1617 15.5221 16.613 17.0519 18.5601C15.7235 19.571 14.1365 20.193 12.4704 20.3557C10.8042 20.5184 9.12548 20.2153 7.62391 19.4808C6.12234 18.7462 4.85785 17.6095 3.97344 16.1992C3.08902 14.7888 2.61997 13.1611 2.61931 11.5ZM20.7368 18.5601C22.324 16.5439 23.1849 14.0583 23.1822 11.5C23.1822 8.83828 22.2666 6.38705 20.7368 4.43992C22.3019 3.24442 24.222 2.59676 26.1972 2.59804C28.2518 2.59804 30.1445 3.28493 31.6575 4.43992C30.0696 6.45572 29.2085 8.94153 29.2121 11.5C29.2121 14.1617 30.1277 16.613 31.6575 18.5601C30.0924 19.7556 28.1724 20.4032 26.1972 20.402C24.2217 20.4047 22.3012 19.7569 20.7368 18.5601ZM35.3425 18.5601C36.9304 16.5443 37.7915 14.0585 37.7879 11.5C37.7879 8.83828 36.8723 6.38705 35.3425 4.43715C36.8555 3.28493 38.7482 2.59527 40.8028 2.59527C42.8574 2.59527 44.7502 3.28216 46.2632 4.43715C44.6752 6.45295 43.8142 8.93876 43.8178 11.4972C43.8178 14.159 44.7334 16.6102 46.2632 18.5573C44.6981 19.7528 42.778 20.4005 40.8028 20.3992C38.8275 20.404 36.9066 19.757 35.3425 18.5601ZM55.4085 20.402C53.433 20.4047 51.5125 19.7569 49.9481 18.5601C51.5349 16.5437 52.3958 14.0583 52.3936 11.5C52.3936 8.83828 51.4779 6.38705 49.9481 4.43992C51.0792 3.57803 52.4011 2.99608 53.8042 2.74233C55.2072 2.48859 56.6511 2.57035 58.0159 2.98085C59.3808 3.39135 60.6273 4.11876 61.6523 5.10275C62.6772 6.08674 63.4509 7.29897 63.9093 8.63892C64.3676 9.97887 64.4975 11.4079 64.288 12.8076C64.0785 14.2073 63.5357 15.5372 62.7047 16.6872C61.8736 17.8372 60.7782 18.774 59.5094 19.4201C58.2405 20.0661 56.8347 20.4027 55.4085 20.402Z" fill="white"></path>
</svg>
