<?xml version="1.0" encoding="UTF-8"?>
<svg xmlns="http://www.w3.org/2000/svg" width="35" height="35" viewBox="0 0 35 35" fill="none">
  <path fill-rule="evenodd" clip-rule="evenodd" d="M19.2313 0.750177C15.8854 1.23364 14.0234 1.5308 13.8847 1.60348C13.7678 1.66488 10.7471 4.64611 7.17224 8.22846C0.188874 15.2264 0.426056 14.9657 0.126173 15.9737C-0.0622045 16.6069 -0.0371514 17.5534 0.18463 18.1819C0.281077 18.4553 0.45419 18.8249 0.569256 19.0031C0.794665 19.3524 12.2039 30.791 12.3268 30.791C12.371 30.791 12.4197 31.0414 12.4477 31.4116C12.5758 33.1084 13.5851 34.3816 15.1927 34.8741C15.5816 34.9933 16.0351 35 23.7149 35C31.3946 35 31.8481 34.9933 32.237 34.8741C33.5149 34.4826 34.4139 33.5953 34.8483 32.2966C34.9676 31.9399 34.9754 31.4391 34.9952 22.7151C35.0067 17.6522 34.9969 13.3767 34.9735 13.2139C34.9371 12.9613 34.6587 12.5547 33.0772 10.4451L31.2237 7.97229L31.294 7.35955C31.335 7.00236 31.3398 6.65859 31.3057 6.53526C31.2664 6.39393 30.8603 5.93785 30.082 5.16099C29.4413 4.52149 28.9171 3.96746 28.9171 3.92975C28.9171 3.89211 29.4428 3.33508 30.0853 2.69188C31.0226 1.75357 31.2647 1.47276 31.3102 1.271C31.4825 0.507284 30.8262 -0.139199 30.0821 0.0611243C29.862 0.120393 29.5868 0.357743 28.6509 1.29564C28.0137 1.93432 27.466 2.45686 27.4339 2.45686C27.4017 2.45686 26.8675 1.94555 26.2468 1.32062C25.1508 0.217236 24.8468 -0.015323 24.5213 0.000760396C24.4354 0.00500367 22.0549 0.342275 19.2313 0.750177ZM25.1152 3.0015L26.0002 3.88828L25.8672 4.04076C25.5174 4.44162 24.6164 5.33133 24.5602 5.33133C24.5254 5.33133 24.3441 5.17488 24.1572 4.98359C23.7671 4.58424 23.4013 4.37318 23.0993 4.37318C22.4139 4.37318 21.921 5.04279 22.1332 5.68551C22.1863 5.84669 22.7167 6.42233 23.8693 7.56973C25.3135 9.00751 25.5632 9.22823 25.7939 9.27059C26.1922 9.34369 26.6471 9.13365 26.8442 8.78577C27.1325 8.27685 27.0156 7.87593 26.3885 7.22301L25.9783 6.79588L26.6788 6.09779C27.0641 5.71391 27.41 5.39977 27.4476 5.39977C27.4851 5.39977 27.9119 5.79666 28.3959 6.28169L29.276 7.16354L28.6062 11.8545L27.9364 16.5454L21.6672 22.8055C18.2192 26.2487 15.2903 29.1219 15.1585 29.1906C14.8212 29.3664 13.9893 29.3657 13.6183 29.1893C13.4339 29.1017 11.5409 27.2582 7.82034 23.543C3.5453 19.2743 2.26472 17.9573 2.15752 17.7189C1.95689 17.2731 1.96819 16.6776 2.18552 16.2438C2.3164 15.9825 3.77995 14.4817 8.6028 9.66351L14.8505 3.42166L19.334 2.77552C21.7999 2.42018 23.9104 2.12609 24.0238 2.12205C24.2011 2.11569 24.3552 2.23991 25.1152 3.0015ZM17.4622 7.82658C17.3175 7.87819 17.1261 7.98892 17.0369 8.07269C16.9121 8.18986 16.3062 9.93035 14.4081 15.624C12.8959 20.1597 11.9413 23.1236 11.9413 23.2831C11.9413 24.1314 12.928 24.5911 13.577 24.0451C13.7589 23.892 14.0308 23.1206 16.2868 16.3534C19.0416 8.09062 18.9132 8.56984 18.4979 8.09678C18.3868 7.97037 18.183 7.83555 18.0449 7.79722C17.7433 7.71345 17.7854 7.71133 17.4622 7.82658ZM31.9132 12.2679L32.9557 13.6609L32.9551 22.6537L32.9544 31.6465L32.7926 31.9886C32.5982 32.3999 32.3426 32.6514 31.929 32.8386C31.6248 32.9762 31.5214 32.978 23.7149 32.9788L15.8088 32.9797L15.466 32.8201C15.0564 32.6294 14.7396 32.2879 14.5767 31.8616C14.4261 31.4673 14.4718 31.3387 14.7628 31.3376C15.0785 31.3365 15.6546 31.1736 16.1078 30.9573C16.4393 30.799 17.4257 29.8423 23.1447 24.1325C29.0878 18.199 29.8034 17.462 29.8635 17.2119C29.9006 17.0579 30.1239 15.5691 30.3599 13.9034C30.5958 12.2377 30.8072 10.875 30.8297 10.875C30.8522 10.875 31.3397 11.5018 31.9132 12.2679ZM9.08524 13.0082C8.16752 13.112 7.24083 13.7829 6.81192 14.6539C6.21605 15.8642 6.4368 17.2151 7.38629 18.1687C9.45405 20.2456 12.943 18.4926 12.5442 15.5772C12.3206 13.9425 10.8011 12.8139 9.08524 13.0082ZM20.7137 13.0091C19.5613 13.1394 18.5044 14.071 18.2074 15.2182C17.9156 16.346 18.2349 17.4476 19.0876 18.254C20.5738 19.6593 22.9748 19.1993 23.8976 17.3326C24.3528 16.4115 24.2822 15.2514 23.7178 14.3782C23.0639 13.3666 21.968 12.8672 20.7137 13.0091ZM10.0244 15.1263C10.5116 15.4001 10.6989 15.995 10.4523 16.4857C9.97189 17.4419 8.5199 17.0779 8.51901 16.001C8.51833 15.2206 9.34132 14.7425 10.0244 15.1263ZM21.5469 15.0747C22.5806 15.5066 22.2768 17.0345 21.1573 17.0345C20.7183 17.0345 20.4132 16.8438 20.2227 16.4503C19.8125 15.6033 20.6729 14.7096 21.5469 15.0747Z" fill="white"></path>
</svg>
