<?xml version="1.0" encoding="UTF-8"?>
<svg xmlns="http://www.w3.org/2000/svg" width="47" height="47" viewBox="0 0 47 47" fill="none">
  <path fill-rule="evenodd" clip-rule="evenodd" d="M13.8778 0.125719C13.5397 0.275874 13.2331 0.599511 13.1027 0.94384C13.0359 1.11973 13.0046 3.71759 13.0046 9.06015V16.9178L12.4761 16.8422C9.4374 16.4079 6.7034 18.0594 5.77515 20.8899C5.55695 21.5551 5.53066 21.7731 5.53562 22.8777C5.5405 23.9886 5.6189 24.5819 6.28565 28.5538C6.69513 30.9934 7.03016 33.0453 7.03016 33.1136C7.03016 33.2111 6.70809 33.2477 5.53654 33.2836C4.2456 33.323 3.96039 33.3599 3.43446 33.5554C1.77852 34.1711 0.744393 35.2432 0.172133 36.9375C0.0324229 37.3514 0.00126379 37.7288 6.89e-05 39.0209C-0.0012179 40.4723 0.0138561 40.6192 0.188218 40.8531C0.494937 41.2647 0.798071 41.4403 1.30535 41.5004L1.7822 41.5568L1.80959 43.8354C1.83974 46.3421 1.83919 46.3398 2.46981 46.8105L2.72368 47H24.402H46.0803L46.3342 46.8105C46.4738 46.7063 46.6733 46.5069 46.7775 46.3673L46.967 46.1136L46.994 28.4536C47.0088 18.7406 46.9954 10.6075 46.9643 10.38C46.9092 9.97763 46.7767 9.83528 42.0199 5.07138C38.1891 1.23478 37.0626 0.156958 36.8105 0.0866591C36.6092 0.0305115 32.3094 -0.00184809 25.3212 8.16908e-05C16.219 0.00256284 14.1025 0.0258294 13.8778 0.125719ZM35.0843 6.88142C35.1093 10.8872 35.1157 11.0176 35.2996 11.2637C35.4038 11.4032 35.6033 11.6026 35.7428 11.7068C35.9889 11.8906 36.12 11.8971 40.126 11.9229L44.2556 11.9494V28.1193V44.2891H32.6743H21.0931V42.9235V41.5579L21.5744 41.5008C22.0857 41.4404 22.3884 41.2655 22.6959 40.8534C22.8698 40.6202 22.8852 40.4727 22.8837 39.0671C22.8822 37.8527 22.8472 37.4205 22.7146 36.9835C22.1496 35.1206 20.7149 33.7933 18.8412 33.4C18.4726 33.3227 17.6972 33.2643 17.0259 33.2633C16.0523 33.2621 15.854 33.2387 15.854 33.1256C15.854 33.0506 16.189 30.9934 16.5985 28.5538C17.2618 24.6024 17.3439 23.9829 17.3506 22.8777C17.3574 21.7517 17.3347 21.5692 17.1048 20.902C16.8475 20.1549 16.5013 19.5166 16.0257 18.913L15.762 18.5781V10.6655V2.75279H25.4103H35.0587L35.0843 6.88142ZM40.1194 6.93399L42.3699 9.18541H40.0957H37.8215V6.93399C37.8215 5.69571 37.8322 4.68257 37.8453 4.68257C37.8582 4.68257 38.8816 5.69571 40.1194 6.93399ZM23.1385 5.61144C20.2842 6.08699 18.1836 8.91588 18.6011 11.7219C19.0159 14.5106 21.2652 16.4806 24.0344 16.4806C26.5082 16.4806 28.605 14.8835 29.329 12.4477C29.549 11.7073 29.549 10.3393 29.329 9.59893C28.9571 8.34779 28.2089 7.27594 27.2202 6.57763C26.0057 5.71989 24.5525 5.37582 23.1385 5.61144ZM25.0061 8.42048C25.6221 8.62991 26.4283 9.43591 26.6377 10.0518C27.0025 11.124 26.7631 12.1683 25.9714 12.9599C25.3817 13.5494 24.8369 13.7801 24.0344 13.7801C23.2318 13.7801 22.687 13.5494 22.0973 12.9599C21.3056 12.1683 21.0662 11.124 21.431 10.0518C21.6314 9.46237 22.4472 8.63008 23.0238 8.42672C23.5725 8.23309 24.447 8.23035 25.0061 8.42048ZM32.2561 15.7459C31.8809 15.9112 31.5001 16.3791 31.4281 16.7634C31.2954 17.4702 31.8573 18.2195 32.6015 18.3282C32.8185 18.3599 34.6992 18.3729 36.7809 18.3573C40.4371 18.3299 40.5744 18.3225 40.8194 18.1394C41.275 17.7992 41.4416 17.4932 41.4416 16.9964C41.4416 16.4996 41.275 16.1937 40.8194 15.8535C40.5733 15.6697 40.4456 15.6633 36.5511 15.6431C33.3536 15.6265 32.4794 15.6474 32.2561 15.7459ZM12.8422 19.7831C13.1211 19.9196 13.5434 20.2388 13.7808 20.4926C14.3898 21.1434 14.5921 21.6477 14.6419 22.6397C14.6778 23.3563 14.5813 24.0699 13.868 28.3601L13.0531 33.2618H11.4421H9.83098L9.01606 28.3601C8.3028 24.0699 8.20629 23.3563 8.24223 22.6397C8.29104 21.6687 8.49022 21.1547 9.05522 20.5418C9.7966 19.7378 10.4649 19.4649 11.5899 19.5072C12.1746 19.5291 12.4444 19.5886 12.8422 19.7831ZM21.2264 21.2602C20.8516 21.4244 20.4705 21.8924 20.3983 22.2771C20.2656 22.9845 20.8282 23.7342 21.5718 23.8407C21.7888 23.8718 26.1511 23.8849 31.2659 23.8699C40.4938 23.8428 40.5675 23.8411 40.8193 23.6531C41.275 23.313 41.4416 23.007 41.4416 22.5101C41.4416 22.0132 41.275 21.7072 40.8193 21.3671C40.5672 21.1789 40.5018 21.1775 31.0361 21.1576C23.2542 21.1412 21.4553 21.1601 21.2264 21.2602ZM21.2264 26.7739C20.8516 26.938 20.4705 27.4061 20.3983 27.7907C20.2656 28.4982 20.8282 29.2479 21.5718 29.3543C21.7888 29.3855 26.1511 29.3985 31.2659 29.3836C40.4938 29.3564 40.5675 29.3548 40.8193 29.1668C41.275 28.8267 41.4416 28.5207 41.4416 28.0238C41.4416 27.5269 41.275 27.2209 40.8193 26.8808C40.5672 26.6926 40.5018 26.6912 31.0361 26.6713C23.2542 26.6549 21.4553 26.6738 21.2264 26.7739ZM30.4178 32.2871C30.0427 32.4521 29.6619 32.92 29.5898 33.3044C29.457 34.0115 30.0193 34.7608 30.7632 34.8688C30.9802 34.9003 33.2745 34.9135 35.8617 34.8979C40.4468 34.8707 40.5721 34.8651 40.8194 34.6804C41.275 34.3402 41.4416 34.0343 41.4416 33.5375C41.4416 33.0406 41.275 32.7347 40.8194 32.3945C40.5714 32.2092 40.4551 32.2045 35.6319 32.1844C31.6704 32.1678 30.6429 32.1881 30.4178 32.2871ZM18.7952 36.2098C19.6383 36.5914 20.1714 37.3974 20.173 38.293L20.1739 38.7754H11.4421H2.71017L2.71219 38.293C2.71596 37.3996 3.21487 36.629 4.04293 36.2376L4.5025 36.0204L11.4421 36.0215C18.2257 36.0226 18.3909 36.0269 18.7952 36.2098ZM30.4178 37.8007C30.0427 37.9658 29.6619 38.4337 29.5898 38.8181C29.457 39.5251 30.0193 40.2745 30.7632 40.3825C30.9802 40.414 33.2745 40.4271 35.8617 40.4116C40.4468 40.3843 40.5721 40.3788 40.8194 40.1941C41.275 39.8539 41.4416 39.548 41.4416 39.0511C41.4416 38.5543 41.275 38.2483 40.8194 37.9081C40.5714 37.7229 40.4551 37.7182 35.6319 37.6981C31.6704 37.6815 30.6429 37.7018 30.4178 37.8007ZM18.3356 42.9107V44.2891H11.4421H4.54846V42.9107V41.5323H11.4421H18.3356V42.9107Z" fill="black"></path>
</svg>
