<?xml version="1.0" encoding="UTF-8"?>
<svg xmlns="http://www.w3.org/2000/svg" width="47" height="39" viewBox="0 0 47 39" fill="none">
  <path fill-rule="evenodd" clip-rule="evenodd" d="M36.8474 0.123566C36.6703 0.189369 35.4185 0.880809 34.0658 1.66014L31.606 3.07706L29.1141 2.17197C26.1543 1.09693 25.6075 0.98595 24.4351 1.2216C23.4946 1.41071 23.2554 1.53127 19.1995 3.85877L15.9455 5.726L14.5547 4.92595C9.78586 2.18283 9.61865 2.09503 9.16319 2.09503C8.30718 2.09503 8.50833 1.78344 4.09576 9.94401C1.88367 14.0351 0.0493308 17.5007 0.019439 17.6456C-0.0594752 18.0282 0.108654 18.5424 0.40095 18.8127C0.540843 18.9421 1.31757 19.4263 2.12695 19.8887C2.93632 20.3511 3.6357 20.7647 3.68104 20.8079C3.72896 20.8535 3.40797 21.4999 2.91682 22.3473C2.45106 23.1508 1.98972 24.0349 1.89158 24.3121C1.65033 24.9932 1.653 26.0687 1.89802 26.8557C2.43433 28.5789 4.19785 29.7671 6.02658 29.6372L6.64069 29.5936L6.90181 30.1452C7.56357 31.5428 9.21976 32.4881 10.8093 32.3752L11.4234 32.3316L11.6845 32.8832C12.3462 34.2808 14.0024 35.2261 15.5919 35.1132L16.2061 35.0696L16.4672 35.6212C17.1381 37.0383 18.7935 37.9702 20.4199 37.8464C21.8329 37.7388 22.7336 37.1685 23.787 35.7143C23.9224 35.5274 23.976 35.5533 26.6842 37.1116C28.2018 37.9848 29.6711 38.7678 29.9493 38.8516C30.6712 39.0689 31.7838 39.0449 32.4786 38.797C33.7178 38.3549 34.6432 37.4117 35.0297 36.1967L35.2378 35.5426L35.7406 35.6221C36.8877 35.8035 38.3142 35.3171 39.193 34.445C39.7557 33.8867 40.2328 32.9817 40.3113 32.3236L40.3637 31.8844L41.0753 31.7899C42.4799 31.6034 43.6194 30.839 44.2399 29.6672C44.8615 28.4935 44.901 27.2357 44.3535 26.049L44.1154 25.533L44.6569 25.004C46.439 23.2627 46.2844 20.4228 44.323 18.8727L44.0147 18.629L45.3491 17.5272C46.083 16.9212 46.7547 16.3175 46.8417 16.1857C46.9343 16.0455 47 15.7693 47 15.5196C47 15.1217 46.7146 14.6101 42.7416 7.88675C40.3994 3.92329 38.3761 0.567218 38.2453 0.428857C38.0372 0.208629 37.535 -0.0100473 37.2613 0.000357125C37.2107 0.002365 37.0244 0.0577619 36.8474 0.123566ZM40.3533 9.17754C42.2796 12.4352 43.8704 15.1244 43.8883 15.1535C43.9532 15.2589 41.5255 17.1688 41.3915 17.1178C41.2762 17.0739 37.3438 14.827 27.4332 9.1424C24.8216 7.64435 24.3901 7.4431 23.9902 7.5361C23.8531 7.56805 21.9177 8.63624 19.6891 9.90987C16.0529 11.9881 15.5953 12.2257 15.2284 12.2253C13.9858 12.2243 13.3601 10.6483 14.2812 9.8396C14.4969 9.65022 23.766 4.33491 24.3848 4.04578C25.2134 3.65862 25.4726 3.70818 28.5886 4.85057C30.375 5.50541 31.5097 5.87386 31.7506 5.87733C32.0713 5.8818 32.4682 5.68731 34.4639 4.54683C35.7495 3.81213 36.8125 3.22081 36.8261 3.23277C36.8397 3.24472 38.4269 5.91985 40.3533 9.17754ZM12.0053 6.56712L13.2201 7.25162L12.9621 7.43398C11.6169 8.38434 10.9075 9.99155 11.168 11.4987C11.6179 14.1022 14.4157 15.6416 16.8176 14.6073C17.0338 14.5142 18.7629 13.5452 20.6598 12.4539C22.5568 11.3628 24.1529 10.468 24.2065 10.4656C24.2602 10.4631 26.8677 11.9301 30.0009 13.7255C33.1342 15.5208 37.2851 17.899 39.2252 19.0105C41.5689 20.353 42.8162 21.1197 42.9418 21.2947C43.0458 21.4397 43.1473 21.7481 43.1673 21.9801C43.2382 22.8005 42.6402 23.4515 41.8156 23.4515C41.3611 23.4515 41.5865 23.57 36.3512 20.5782C35.4837 20.0824 35.179 19.9531 34.8796 19.9535C34.0894 19.9545 33.5373 20.496 33.5367 21.2704C33.536 22.0584 33.5913 22.1005 37.7681 24.5011C41.945 26.9017 41.9982 26.9423 41.9976 27.7318C41.9969 28.5168 41.4072 29.1091 40.6256 29.1097C40.2626 29.1101 39.8099 28.8766 36.3948 26.9284C34.2915 25.7285 32.4381 24.7194 32.2761 24.6861C31.8611 24.6006 31.2022 24.9056 30.9638 25.2935C30.7054 25.714 30.7157 26.3459 30.9874 26.7465C31.1497 26.9859 31.8784 27.4459 34.1835 28.7641C36.1043 29.8626 37.248 30.5716 37.3899 30.7517C37.6853 31.1265 37.7434 31.7827 37.5192 32.2114C37.281 32.6672 36.8215 32.9433 36.3015 32.9433C35.9154 32.9433 35.587 32.7788 32.8431 31.2102C31.1756 30.2569 29.6811 29.4523 29.5218 29.4221C29.1092 29.3438 28.439 29.6579 28.2045 30.0394C27.9474 30.4578 27.9565 31.092 28.2251 31.4875C28.3755 31.7089 28.9248 32.0747 30.2256 32.8193C31.309 33.4396 32.1061 33.9572 32.2394 34.1273C32.5346 34.5037 32.593 35.1609 32.3687 35.5836C32.1271 36.039 31.7808 36.2532 31.2177 36.2955C30.7323 36.332 30.7241 36.3282 28.0178 34.7746C25.9788 33.6041 25.3092 33.1774 25.3234 33.0574C25.3338 32.9695 25.414 32.5966 25.5017 32.2286C26.0108 30.0902 24.5157 27.8533 22.2976 27.435C21.7658 27.3347 21.7635 27.3329 21.7635 27.0092C21.7635 26.8305 21.7002 26.4428 21.6227 26.1478C21.2101 24.576 20.0435 23.449 18.5074 23.1385L17.9466 23.0251L17.8817 22.4494C17.7563 21.336 17.3796 20.5716 16.5921 19.8324C16.0191 19.2947 15.5505 19.0353 14.8029 18.8421C13.8641 18.5995 12.7977 18.7188 11.916 19.1652L11.5474 19.3517L11.0825 18.847C9.74557 17.3953 7.36233 17.1439 5.76105 18.2855L5.32196 18.5985L4.27814 18.0074C3.70404 17.6823 3.22025 17.4025 3.20314 17.3854C3.17445 17.3569 9.29389 5.96503 9.59336 5.48953L9.72598 5.27897L10.2582 5.5808C10.551 5.74681 11.3372 6.19064 12.0053 6.56712ZM8.79952 20.4628C9.22086 20.7447 9.46901 21.1971 9.46183 21.6705C9.45687 21.9976 9.2605 22.3974 8.22873 24.1815C7.55382 25.3485 6.88608 26.4201 6.7449 26.5627C5.81724 27.4993 4.10744 26.57 4.42254 25.3003C4.47911 25.0724 6.57401 21.3658 6.96895 20.7948C7.34025 20.258 8.24731 20.0936 8.79952 20.4628ZM14.5497 21.6219C14.9135 21.849 15.1414 22.2935 15.1414 22.7767C15.1414 23.1999 15.0242 23.4336 13.4503 26.1479C12.5203 27.7521 11.6497 29.1762 11.5157 29.3128C10.6276 30.2183 8.98927 29.3867 9.194 28.1344C9.24974 27.7939 12.5552 22.0206 12.8418 21.7633C13.2603 21.3874 14.0669 21.3207 14.5497 21.6219ZM18.3383 25.9153C18.8228 26.2085 19.0209 26.605 18.9767 27.1935C18.9429 27.6431 18.8075 27.9195 17.6796 29.8414C16.29 32.2094 16.097 32.4261 15.378 32.4261C14.5773 32.4261 13.9917 31.8603 13.9917 31.0866C13.9917 30.6498 14.0711 30.4749 14.9949 28.88C16.5212 26.2447 16.6255 26.0883 16.9794 25.9019C17.3974 25.6819 17.9618 25.6874 18.3383 25.9153ZM22.3246 30.3031C22.6903 30.5614 22.8672 30.9338 22.8672 31.4448C22.8672 31.8171 22.7602 32.0552 22.0328 33.3002C21.0978 34.9007 20.8333 35.1641 20.1607 35.1641C19.4055 35.1641 18.823 34.6346 18.7542 33.8856C18.716 33.4689 18.7565 33.3718 19.5087 32.0763C20.372 30.5892 20.5632 30.3388 20.9817 30.1467C21.3402 29.9822 21.9751 30.0561 22.3246 30.3031Z" fill="black"></path>
</svg>
