<?xml version="1.0" encoding="UTF-8"?>
<svg xmlns="http://www.w3.org/2000/svg" width="67" height="35" viewBox="0 0 67 35" fill="none">
  <path d="M30.0562 21.9042C29.782 22.6823 29.5682 23.1828 29.2501 23.5147C29.0034 23.7758 28.6743 23.9608 27.9121 23.9608C27.3199 23.9608 26.9853 23.7214 26.9853 23.2644C26.9799 22.9706 27.0621 22.5245 27.3802 21.654C27.6544 20.876 27.8682 20.3754 28.1863 20.0435C28.433 19.7824 28.7621 19.5974 29.5188 19.5974C30.1111 19.5974 30.4456 19.8368 30.4401 20.2938C30.4511 20.5876 30.3743 21.0392 30.0562 21.9042ZM29.9301 17.7095H29.6779C28.1753 17.7095 27.3144 18.1121 26.6125 18.852C25.7351 19.7715 24.9125 22.2579 24.929 23.5745C24.9454 24.9184 25.8228 25.8433 27.6598 25.8433H27.9285C29.4366 25.8433 30.2975 25.4407 30.9994 24.7008C31.8768 23.7813 32.6829 21.2949 32.6665 19.9782C32.6445 18.6398 31.7671 17.7095 29.9301 17.7095ZM38.7479 17.8074L35.8306 23.4984H35.7703L35.6222 17.8074H33.1765L33.0832 18.0141L33.2916 18.1393C33.4945 18.2807 33.5494 18.4222 33.5768 18.8194L33.9058 25.7236H36.6312L41.0182 17.8074H38.7479ZM22.549 20.6801C22.4119 21.0174 22.2584 21.099 22.061 21.1806C21.9294 21.235 21.6442 21.2514 21.3755 21.2514H20.3226L20.8929 19.6137H22.1652C22.5435 19.6137 22.7026 19.8096 22.7081 20.0326C22.7081 20.1741 22.6422 20.4353 22.549 20.6801ZM22.3571 17.8074H18.9133L18.842 18.0141L18.9791 18.1502C19.1272 18.2916 19.1217 18.4657 18.9901 18.8302L16.5827 25.7236H18.7817L19.7249 22.9869H20.4707L21.2987 25.7236H23.5087L22.4668 22.9217C23.07 22.8237 23.3716 22.6551 23.6787 22.3885C24.0954 22.0131 24.3806 21.4853 24.6164 20.7073C24.9619 19.5811 24.7535 18.9336 24.5286 18.6017C24.227 18.1447 23.58 17.8074 22.3571 17.8074ZM16.846 18.8248L10.8248 20.7889L10.09 22.7911H15.3983L16.0892 20.9032H12.4096L16.5882 19.4995L16.846 18.8248ZM51.8704 20.6801C51.7333 21.0174 51.5798 21.099 51.3879 21.1806C51.2508 21.235 50.9711 21.2514 50.7024 21.2514H49.6495L50.2144 19.6137H51.4921C51.8704 19.6137 52.0295 19.8096 52.0295 20.0326C52.0349 20.1741 51.9637 20.4353 51.8704 20.6801ZM51.6785 17.8074H48.2347L48.1689 18.0141L48.306 18.1502C48.4541 18.2916 48.4486 18.4657 48.3225 18.8302L45.9151 25.7236H48.1196L49.0573 22.9869H49.8031L50.6311 25.7236H52.841L51.8046 22.9217C52.4078 22.8237 52.7094 22.6551 53.011 22.3885C53.4278 22.0131 53.713 21.4853 53.9542 20.7073C54.2997 19.5811 54.0913 18.9336 53.872 18.6017C53.5539 18.1447 52.9069 17.8074 51.6785 17.8074ZM56.1971 28.4276C50.154 31.5234 42.093 33.2318 33.4945 33.2318C24.9015 33.2318 16.8405 31.5234 10.7974 28.4276C4.98469 25.4516 1.78221 21.5669 1.78221 17.5027C1.78221 13.4331 4.98469 9.55386 10.7974 6.57236C16.8405 3.4766 24.9015 1.76823 33.4945 1.76823C42.093 1.76823 50.154 3.4766 56.1971 6.57236C62.0098 9.54842 65.2123 13.4331 65.2123 17.5027C65.2123 21.5669 62.0098 25.4516 56.1971 28.4276ZM57.0142 5C50.7243 1.77911 42.3672 0 33.4945 0C24.6219 0 16.2702 1.77911 9.98036 5C6.25143 6.91513 0 11.0773 0 17.5027C0 23.9227 6.25143 28.0903 9.98036 30C16.2702 33.2263 24.6219 35 33.5 35C42.3726 35 50.7243 33.2263 57.0196 30C60.7486 28.0903 67 23.9227 67 17.5027C66.9945 11.0773 60.7431 6.91513 57.0142 5ZM55.3526 26.8063C48.8489 30.1415 40.7604 31.4037 33.5 31.4037C26.2341 31.4037 18.1511 30.136 11.6474 26.8063C8.20363 25.0435 3.63022 21.79 3.63022 17.5027C3.63022 13.2155 8.20363 9.96192 11.6474 8.19913C18.1511 4.86942 26.2341 3.60174 33.5 3.60174C40.7659 3.60174 48.8544 4.86398 55.3526 8.19913C58.7964 9.96192 63.3698 13.21 63.3698 17.5027C63.3698 21.79 58.7964 25.0381 55.3526 26.8063ZM55.6871 7.55169C49.0847 4.16213 40.8646 2.86725 33.4945 2.86725C26.1244 2.86725 17.9043 4.16213 11.3019 7.55169C7.59494 9.45049 2.88443 12.8836 2.88443 17.5027C2.88443 22.1219 7.58946 25.555 11.3019 27.4538C17.9043 30.8379 26.1244 32.1328 33.4945 32.1328C40.8646 32.1328 49.0847 30.8379 55.6871 27.4538C59.3996 25.5495 64.1046 22.1219 64.1046 17.5027C64.1046 12.8781 59.3996 9.45049 55.6871 7.55169ZM45.438 22.5462L46.0467 20.8923H43.2446L43.6778 19.63H46.7157L47.3848 17.802H41.6488L41.5665 18.0359L41.7036 18.1719C41.8517 18.3134 41.8462 18.482 41.7201 18.852L39.3292 25.7236H44.6868L45.3339 23.8847H42.2081L42.6688 22.5517H45.438V22.5462ZM52.1501 11.0174H46.8419L46.1509 12.8999H49.8305L45.6519 14.309L45.3942 14.9837L51.4153 13.0196L52.1501 11.0174ZM28.4221 16.0936H30.4236L32.1675 10.9739L33.1874 16.0936H35.189L37.9199 8.17737L35.8251 8.18281L34.3664 12.4864L33.5329 8.18281H30.7143L30.643 8.38411L30.7801 8.52013C30.9281 8.66703 30.9227 8.83569 30.7965 9.20022L28.4221 16.0936ZM40.7988 10.0544H41.6707C42.263 10.0544 42.592 10.2503 42.603 10.7073C42.6084 11.0011 42.5262 11.4037 42.2191 12.2742C41.9449 13.0522 41.731 13.4984 41.4185 13.8302C41.1717 14.0914 40.8427 14.2057 40.0805 14.2057H39.3511L40.7988 10.0544ZM38.885 9.20022L36.5051 16.0936H40.0201C41.5282 16.0936 42.3836 15.7617 43.0855 15.0218C43.9629 14.1023 44.7581 11.7138 44.7361 10.3972C44.7087 9.05332 43.8368 8.17737 41.9998 8.17737H38.8082L38.7424 8.37867L38.8795 8.51469C39.0221 8.66159 39.0166 8.83025 38.885 9.20022ZM25.6583 10.37H25.7296L25.768 12.7584H24.2983L25.6583 10.37ZM20.0868 16.0936H22.401L23.4045 14.3471H25.8009L25.8228 16.0936H27.9231L27.4734 8.17737H24.3257L24.2545 8.37867L24.3587 8.48205C24.5232 8.64527 24.4574 8.87378 23.8432 9.83678L20.0868 16.0936ZM14.0767 16.0936H19.522L20.1801 14.2057H17.016L19.1053 8.17737H16.3744L16.3086 8.37867L16.4457 8.51469C16.5937 8.66159 16.5882 8.83025 16.4621 9.19478L14.0767 16.0936Z" fill="white"></path>
</svg>
