<?xml version="1.0" encoding="UTF-8"?>
<svg xmlns="http://www.w3.org/2000/svg" width="47" height="47" viewBox="0 0 47 47" fill="none">
  <path fill-rule="evenodd" clip-rule="evenodd" d="M21.6053 0.0594775C15.7506 0.552872 11.8319 3.16246 10.0746 7.73808C9.51307 9.20024 9.1937 10.8097 8.94543 13.4289C8.92271 13.6684 8.87 13.7076 8.41651 13.8231C6.97775 14.1895 5.7536 15.5348 5.47065 17.0603C5.34969 17.7124 5.35135 23.7973 5.47268 24.4367C5.6722 25.4883 6.34323 26.525 7.18518 27.0825C8.06365 27.6641 8.48559 27.7646 10.2904 27.8223L11.9366 27.8748L12.097 28.6563C12.3914 30.0919 12.9607 31.4323 13.7906 32.644L14.2139 33.2621L14.1887 34.7426L14.1634 36.2232L8.18111 38.7645C4.89078 40.1622 2.05089 41.3971 1.87023 41.5088C1.48012 41.7498 0.80485 42.4575 0.534871 42.9083C0.155705 43.5415 0.00264007 44.1908 6.44653e-05 45.1771C-0.00260313 46.1939 0.075401 46.3958 0.630904 46.8104L0.88497 47H23.5H46.115L46.3691 46.8104C46.9246 46.3958 47.0026 46.1939 46.9999 45.1771C46.9974 44.1908 46.8443 43.5415 46.4651 42.9083C46.1949 42.457 45.5197 41.7497 45.1286 41.5079C44.9472 41.3959 42.1073 40.1596 38.8177 38.7604L32.8366 36.2166L32.8113 34.7393L32.7861 33.2621L33.2094 32.644C34.0393 31.4323 34.6086 30.0919 34.903 28.6563L35.0634 27.8748L36.7096 27.8223C38.5144 27.7646 38.9364 27.6641 39.8148 27.0825C40.6568 26.525 41.3278 25.4883 41.5273 24.4367C41.6487 23.7973 41.6503 17.7124 41.5293 17.0603C41.2464 15.5348 40.0223 14.1895 38.5835 13.8231C38.13 13.7076 38.0773 13.6684 38.0546 13.4289C37.8117 10.867 37.4955 9.24447 36.9652 7.83968C35.5297 4.03698 32.569 1.52146 28.3498 0.519863C26.5469 0.0918433 23.6044 -0.109064 21.6053 0.0594775ZM26.7436 2.95125C28.0758 3.19924 29.1018 3.53209 30.169 4.06235C32.3481 5.14523 33.73 6.76545 34.5504 9.19941C34.9299 10.3253 35.2742 12.1726 35.2742 13.0826C35.2742 13.6388 35.263 13.6687 35.0552 13.6687C34.8713 13.6687 34.8189 13.6002 34.7286 13.242C34.6695 13.0073 34.4592 12.4068 34.2613 11.9078C33.1104 9.00577 31.4315 7.60016 29.1162 7.60016C28.1106 7.60016 27.2732 7.80805 25.5237 8.49215C24.3253 8.96072 24.1199 9.01377 23.5 9.01432C22.8797 9.01487 22.6726 8.96191 21.4473 8.48865C20.6978 8.1992 19.7458 7.88115 19.3317 7.78185C18.4475 7.57 17.2253 7.54637 16.5429 7.72797C14.7301 8.21051 13.3801 9.79974 12.4682 12.5248C12.1604 13.4447 12.0681 13.6278 11.899 13.654C11.6993 13.6849 11.6977 13.6751 11.751 12.7345C11.8559 10.8852 12.4269 8.81912 13.2129 7.44596C14.7557 4.7505 17.3807 3.26939 21.4763 2.78326C22.2724 2.68874 25.9667 2.80662 26.7436 2.95125ZM19.5223 10.6726C20.0152 10.8445 20.8117 11.1293 21.2923 11.3055C21.773 11.4818 22.4817 11.6766 22.8673 11.7386C23.7872 11.8863 24.6067 11.7251 26.413 11.0409C28.5666 10.225 29.1891 10.1173 29.893 10.4387C30.6762 10.7963 31.4152 11.9262 32.0656 13.7607L32.3754 14.6342L32.3991 20.1971L32.4227 25.7599L30.9154 26.7548C28.6807 28.2298 28.2049 28.3783 25.7077 28.3801C24.1134 28.3813 23.8648 28.4561 23.494 29.0463C23.2608 29.4175 23.2941 30.1129 23.5626 30.4791C23.9328 30.984 24.2113 31.0468 26.0756 31.0456C28.5636 31.044 29.7563 30.7462 31.3471 29.7291C31.6351 29.5449 31.8707 29.4197 31.8707 29.4509C31.8707 29.4821 31.6821 29.8653 31.4515 30.3025C30.4666 32.1697 28.7483 33.5998 26.6585 34.2917C25.3888 34.7121 24.3052 34.8568 22.9481 34.7872C19.543 34.6124 16.7471 32.8355 15.3989 29.9896C14.5887 28.2793 14.6234 28.6715 14.6234 21.2085V14.6342L14.88 13.8067C15.4332 12.0227 16.1243 10.8916 16.9029 10.4962C17.3288 10.2797 17.453 10.2583 18.0046 10.3061C18.3466 10.3358 19.0296 10.5007 19.5223 10.6726ZM11.8178 20.7028V25.0703L10.461 25.07C8.94147 25.0696 8.67738 24.9875 8.32185 24.4045C8.14828 24.12 8.13898 23.9355 8.13871 20.7672C8.13834 17.183 8.13954 17.1732 8.62348 16.7212C8.95867 16.4083 9.25376 16.3519 10.599 16.3432L11.8178 16.3352V20.7028ZM38.1882 16.5736C38.331 16.6794 38.5408 16.9028 38.6547 17.0699C38.86 17.3715 38.8617 17.4003 38.8613 20.7394C38.861 23.9354 38.8517 24.12 38.6782 24.4045C38.3226 24.9875 38.0585 25.0696 36.539 25.07L35.1822 25.0703V20.6943V16.3184L36.5555 16.3498C37.776 16.3777 37.9576 16.4026 38.1882 16.5736ZM19.5906 36.9173C22.6856 37.9245 26.231 37.6569 29.1341 36.1969L30.031 35.7459L30.0298 36.9594C30.0267 40.0563 28.8739 42.4987 26.9287 43.5296C25.8441 44.1044 25.1835 44.2416 23.5 44.2416C22.1699 44.2416 21.897 44.2151 21.2923 44.0275C19.6085 43.505 18.4895 42.5285 17.7449 40.9314C17.2106 39.7855 17.0478 38.9916 16.9951 37.2759L16.9477 35.7351L17.8552 36.1916C18.3544 36.4426 19.1353 36.7692 19.5906 36.9173ZM14.4892 39.6671C14.7873 41.1137 15.4662 42.6722 16.2519 43.7128L16.6857 44.2875H9.78958C2.93626 44.2875 2.89431 44.2864 3.00745 44.1052C3.07019 44.0049 3.28783 43.8367 3.49121 43.7314C4.01442 43.4606 14.1404 39.1525 14.2719 39.1448C14.3318 39.1413 14.4292 39.3754 14.4892 39.6671ZM38.0953 41.4009C41.0211 42.6453 43.5219 43.7259 43.6525 43.8023C43.7831 43.8786 43.9387 44.0191 43.9983 44.1143C44.1039 44.2834 43.9412 44.2875 37.2104 44.2875H30.3143L30.7481 43.7128C31.5338 42.6722 32.2127 41.1137 32.5108 39.6671C32.5706 39.3763 32.6548 39.1384 32.6977 39.1384C32.7406 39.1384 35.1695 40.1566 38.0953 41.4009Z" fill="black"></path>
</svg>
