<?xml version="1.0" encoding="UTF-8"?>
<svg xmlns="http://www.w3.org/2000/svg" width="47" height="46" viewBox="0 0 47 46" fill="none">
  <path fill-rule="evenodd" clip-rule="evenodd" d="M33.5762 0.0235542C33.3984 0.0440564 32.858 0.126608 32.3754 0.206998C29.0824 0.755431 26.0608 2.70817 24.1642 5.51373L23.7295 6.15667L23.2957 5.67774C22.7067 5.02743 21.6787 4.37784 20.7347 4.05943L19.9517 3.79541L15.5959 3.76484C11.9306 3.73904 11.1051 3.75693 10.3891 3.87716C7.40579 4.37838 5.20537 6.53956 4.69716 9.46777C4.57015 10.1998 4.56258 10.4591 4.65162 11.0254C4.85502 12.3191 5.67128 13.4615 6.80512 14.0394L7.32201 14.3029L7.37143 16.6007C7.4251 19.0926 7.49521 19.5689 7.99345 20.8266C8.52642 22.1721 9.81884 23.7811 11.0061 24.577L11.5 24.9081L11.4995 26.9914L9.20468 28.8991L8.30593 28.9633C7.23722 29.0397 5.958 29.3401 5.11273 29.7132C3.1799 30.5664 1.35395 32.4318 0.607697 34.3157C0.0164418 35.8084 0 35.9824 0 40.7652C0 45.0002 0.00424901 45.1028 0.190465 45.3456C0.295212 45.4823 0.495653 45.6775 0.635962 45.7795L0.890993 45.9649L18.775 45.9883C38.6262 46.0143 37.3018 46.0531 38.2573 45.4164C38.5204 45.2411 38.8826 44.8882 39.0625 44.6321C39.5214 43.9785 39.6726 43.3171 39.6726 41.9634C39.6726 40.6097 39.5214 39.9483 39.0625 39.2947C38.4961 38.488 37.3626 37.9169 36.3279 37.9169H35.9778V31.0379C35.9778 27.2545 36.0025 24.1589 36.0326 24.1589C36.0627 24.1589 36.4965 24.0777 36.9967 23.9785C40.8337 23.2173 44.0551 20.8158 45.7192 17.4761C46.649 15.6101 46.9917 14.1861 46.9998 12.1544C47.0083 10.0852 46.6701 8.65739 45.7181 6.74269C44.5455 4.38395 42.5175 2.4126 40.093 1.27419C38.8433 0.687454 38.1435 0.454193 36.9607 0.229929C36.0721 0.0615052 34.2233 -0.0512606 33.5762 0.0235542ZM36.3242 2.80358C41.5892 3.7759 45.0727 8.64004 44.1554 13.7387C43.3429 18.2555 39.3087 21.5512 34.5923 21.5512C29.221 21.5512 24.8935 17.3383 24.8935 12.1094C24.8935 7.56331 28.1765 3.70216 32.8026 2.80735C33.671 2.63938 35.4249 2.63749 36.3242 2.80358ZM20.2866 6.73765C20.9 7.03097 21.5936 7.71932 21.8739 8.31317C22.0464 8.6787 22.0785 8.93318 22.1063 10.1536C22.134 11.3654 22.1187 11.5699 22.0004 11.5699C21.7192 11.5699 20.6799 10.788 20.2207 10.231C19.6642 9.55607 19.4442 9.41921 18.908 9.4149C18.3818 9.41067 18.0328 9.59924 17.703 10.0658C17.3425 10.576 16.6923 11.1507 16.1968 11.3973C15.3724 11.8076 15.0612 11.8375 11.5923 11.8382C8.48217 11.8389 8.29771 11.8297 8.0122 11.6602C7.55986 11.3918 7.34409 10.9833 7.34372 10.3948C7.34307 9.42586 7.74497 8.48421 8.48374 7.72365C9.02909 7.16236 9.53444 6.85086 10.2805 6.61626C10.7663 6.46348 11.1552 6.45215 15.2871 6.46996L19.767 6.48929L20.2866 6.73765ZM19.382 13.1326C19.9363 13.5701 20.6829 13.9496 21.4596 14.1888L22.136 14.3971L22.1048 16.6478C22.0745 18.822 22.0651 18.9209 21.8274 19.5581C21.4835 20.4797 21.0677 21.1153 20.3552 21.8091C19.6427 22.5026 18.9898 22.9073 18.0429 23.2423C17.4345 23.4576 17.2381 23.4821 16.1184 23.4821C14.9987 23.4821 14.8023 23.4576 14.1939 23.2423C12.3908 22.6044 11.0162 21.2504 10.3776 19.483C10.1845 18.9489 10.1635 18.7111 10.1333 16.7271L10.1002 14.5556L12.7629 14.5144C15.1498 14.4775 15.4958 14.453 16.1026 14.2782C16.9214 14.0423 17.6548 13.6883 18.3353 13.2008C18.6147 13.0006 18.8779 12.835 18.9202 12.8327C18.9624 12.8306 19.1702 12.9655 19.382 13.1326ZM24.9676 19.7752C26.7857 21.9277 29.3371 23.413 32.1878 23.9785C32.688 24.0777 33.1218 24.1589 33.152 24.1589C33.1821 24.1589 33.2067 27.2667 33.2067 31.0652V37.9713L32.3085 38.1505L32.2484 37.1863C32.1061 34.9044 31.3231 33.1375 29.7495 31.5464C28.1988 29.9785 26.2814 29.1313 23.8979 28.961L23.0322 28.8991L20.7373 26.9914L20.7369 24.9081L21.2308 24.577C21.929 24.1089 22.9388 23.0661 23.4897 22.2444C23.9638 21.5371 24.4534 20.4408 24.5723 19.8202C24.6079 19.6348 24.6558 19.483 24.6788 19.483C24.7018 19.483 24.8318 19.6145 24.9676 19.7752ZM16.1184 26.1821C16.4486 26.1821 16.9993 26.1507 17.3423 26.1122L17.9658 26.0422V26.6452C17.9658 27.2447 17.9605 27.2572 17.0652 28.76C16.5698 29.5914 16.1438 30.2718 16.1184 30.2718C16.093 30.2718 15.667 29.5914 15.1716 28.76C14.2763 27.2572 14.271 27.2447 14.271 26.6452V26.0422L14.8945 26.1122C15.2375 26.1507 15.7882 26.1821 16.1184 26.1821ZM13.4534 31.1462L14.3446 32.6441L13.3225 33.4402C12.7604 33.878 12.2724 34.2045 12.238 34.1658C12.2035 34.127 11.9561 33.3395 11.688 32.416L11.2006 30.7368L11.5549 30.4377C11.7498 30.2732 12.0354 30.0286 12.1896 29.894C12.3438 29.7595 12.4906 29.6492 12.516 29.6488C12.5414 29.6484 12.9633 30.3222 13.4534 31.1462ZM20.3572 30.1567C20.693 30.4387 20.9843 30.6807 21.0046 30.6945C21.0515 30.7268 20.0824 34.0716 19.9989 34.1658C19.9645 34.2045 19.4764 33.878 18.9143 33.4402L17.8923 32.6441L18.7835 31.1462C19.2736 30.3222 19.6908 29.6473 19.7106 29.6461C19.7303 29.645 20.0213 29.8748 20.3572 30.1567ZM8.77221 32.0945C8.84971 32.3542 9.22232 33.6186 9.6003 34.9044C10.2377 37.073 10.3104 37.2626 10.6041 37.5246C10.9958 37.874 11.532 37.9821 11.9732 37.8005C12.1447 37.7298 12.8359 37.2404 13.509 36.7131L14.7329 35.7542V43.3122H2.72489L2.72628 40.0076C2.72775 36.3253 2.76396 36.0191 3.32899 34.9042C3.92384 33.7303 4.91506 32.7654 6.10246 32.204C6.82655 31.8618 7.64789 31.6413 8.24136 31.6299L8.63135 31.6224L8.77221 32.0945ZM25.3682 31.894C27.1393 32.4674 28.599 33.8863 29.2517 35.6689C29.4594 36.2363 29.4664 36.3563 29.4938 39.7828L29.5218 43.3122H17.504V35.7542L18.7279 36.7131C19.4009 37.2404 20.0921 37.7298 20.2637 37.8005C20.7048 37.9821 21.241 37.874 21.6328 37.5246C21.9264 37.2626 21.9991 37.073 22.6365 34.9044C23.0145 33.6186 23.3889 32.3485 23.4683 32.0821L23.6129 31.5976L24.1968 31.6506C24.5179 31.6798 25.0451 31.7893 25.3682 31.894ZM36.7906 40.7225C36.9443 40.872 36.9443 43.0548 36.7906 43.2043C36.7107 43.2822 36.0681 43.3122 34.4814 43.3122H32.283L32.2834 42.4355C32.2838 41.4425 32.4191 41.1101 32.9519 40.794C33.2236 40.6326 33.4195 40.6152 34.9664 40.6149C36.1763 40.6147 36.7124 40.6463 36.7906 40.7225Z" fill="black"></path>
  <path fill-rule="evenodd" clip-rule="evenodd" d="M30.4203 8.13362C30.9614 7.60687 31.8387 7.60687 32.3798 8.13362L34.5352 10.2319L36.6906 8.13362C37.2317 7.60687 38.1089 7.60687 38.65 8.13362C39.1911 8.66037 39.1911 9.5144 38.65 10.0412L36.4946 12.1394L38.65 14.2377C39.1911 14.7645 39.1911 15.6185 38.65 16.1452C38.1089 16.672 37.2317 16.672 36.6906 16.1452L34.5352 14.047L32.3798 16.1452C31.8387 16.672 30.9614 16.672 30.4203 16.1452C29.8793 15.6185 29.8793 14.7645 30.4203 14.2377L32.5757 12.1394L30.4203 10.0412C29.8793 9.5144 29.8793 8.66037 30.4203 8.13362Z" fill="black"></path>
</svg>
